<?xml version="1.0" standalone="no"?>
<!DOCTYPE svg PUBLIC "-//W3C//DTD SVG 20010904//EN"
 "http://www.w3.org/TR/2001/REC-SVG-20010904/DTD/svg10.dtd">
<svg version="1.0" xmlns="http://www.w3.org/2000/svg"
 width="512.000000pt" height="512.000000pt" viewBox="0 0 512.000000 512.000000"
 preserveAspectRatio="xMidYMid meet">
<metadata>
Created by potrace 1.14, written by Peter Selinger 2001-2017
</metadata>
<g transform="translate(0.000000,512.000000) scale(0.100000,-0.100000)"
fill="#000000" stroke="none">
<path d="M317 5050 c-95 -24 -184 -99 -226 -190 -21 -45 -25 -70 -26 -140 0
-74 4 -93 29 -144 16 -32 47 -77 70 -99 39 -38 130 -87 161 -87 13 0 15 -59
15 -441 l0 -441 -24 -47 c-28 -52 -86 -180 -86 -188 0 -3 -7 -19 -15 -36 -15
-33 -83 -253 -91 -297 -2 -14 -11 -56 -19 -95 -8 -38 -17 -90 -20 -115 -3 -25
-8 -56 -12 -70 -3 -14 -8 -308 -10 -655 -3 -611 -2 -632 18 -709 55 -214 192
-383 385 -480 85 -42 88 -43 208 -66 28 -6 303 -10 651 -10 l602 0 22 -24 c43
-45 27 -218 -30 -345 -37 -81 -42 -112 -28 -163 20 -77 100 -131 182 -123 42
4 242 82 359 141 251 126 422 258 599 461 l45 53 660 1 c362 0 673 2 689 4
192 20 401 149 508 313 64 99 82 141 116 272 9 35 8 1209 -1 1299 -27 261
-102 531 -214 770 l-54 114 0 438 c0 416 1 439 18 439 32 0 120 50 161 91 22
23 53 66 68 97 24 49 28 69 28 142 -1 72 -5 94 -28 142 -35 72 -97 134 -167
167 -79 37 -201 37 -280 0 -71 -34 -137 -99 -169 -169 -21 -45 -26 -70 -26
-140 0 -74 4 -93 29 -144 16 -32 47 -77 70 -99 39 -38 130 -87 161 -87 13 0
15 -47 15 -337 0 -185 -4 -333 -8 -327 -4 5 -28 36 -52 69 -329 447 -818 775
-1370 919 -123 32 -302 64 -410 74 -159 13 -600 5 -630 -13 -3 -2 -25 -6 -50
-9 -164 -22 -421 -96 -600 -170 -187 -78 -367 -184 -539 -314 -106 -81 -144
-114 -257 -228 -80 -80 -214 -238 -266 -314 -16 -24 -17 -8 -17 313 -1 318 0
337 17 337 31 0 118 49 160 90 22 22 53 66 69 98 24 49 28 68 27 142 0 69 -5
95 -26 140 -31 69 -98 136 -165 167 -59 27 -166 38 -226 23z"/>
</g>
</svg>
